<mxfile host="app.diagrams.net" agent="Mozilla/5.0 (Windows NT 10.0; Win64; x64) AppleWebKit/537.36 (KHTML, like Gecko) Chrome/134.0.0.0 Safari/537.36" version="26.1.1">
  <diagram name="Page-1" id="74e2e168-ea6b-b213-b513-2b3c1d86103e">
    <mxGraphModel dx="1323" dy="743" grid="1" gridSize="10" guides="1" tooltips="1" connect="1" arrows="1" fold="1" page="1" pageScale="1" pageWidth="1100" pageHeight="850" background="none" math="0" shadow="0">
      <root>
        <mxCell id="0" />
        <mxCell id="1" parent="0" />
        <mxCell id="77e6c97f196da883-1" value="" style="swimlane;html=1;childLayout=stackLayout;startSize=0;rounded=0;shadow=0;labelBackgroundColor=none;strokeWidth=1;fontFamily=Verdana;fontSize=12;align=center;" parent="1" vertex="1">
          <mxGeometry x="80" y="27" width="960" height="580" as="geometry" />
        </mxCell>
        <mxCell id="77e6c97f196da883-2" value="&lt;font&gt;レスキュー開始&lt;/font&gt;" style="swimlane;html=1;startSize=30;fillColor=light-dark(#e6e6e6, #161616);swimlaneFillColor=#E6E6E6;strokeColor=none;fontSize=14;" parent="77e6c97f196da883-1" vertex="1">
          <mxGeometry width="160" height="580" as="geometry" />
        </mxCell>
        <mxCell id="77e6c97f196da883-8" value="銀テープを検知&lt;div&gt;レスキュー開始&lt;/div&gt;" style="rounded=1;whiteSpace=wrap;html=1;shadow=0;labelBackgroundColor=none;strokeWidth=1;fontFamily=Verdana;fontSize=12;align=center;" parent="77e6c97f196da883-2" vertex="1">
          <mxGeometry x="30" y="60" width="100" height="60" as="geometry" />
        </mxCell>
        <mxCell id="77e6c97f196da883-3" value="被災者検知" style="swimlane;html=1;startSize=30;fillColor=light-dark(#ffffff, #ededed);strokeColor=none;swimlaneFillColor=default;fontSize=14;" parent="77e6c97f196da883-1" vertex="1">
          <mxGeometry x="160" width="160" height="580" as="geometry" />
        </mxCell>
        <mxCell id="77e6c97f196da883-11" value="その場で回転する" style="rounded=1;whiteSpace=wrap;html=1;shadow=0;labelBackgroundColor=none;strokeWidth=1;fontFamily=Verdana;fontSize=12;align=center;" parent="77e6c97f196da883-3" vertex="1">
          <mxGeometry x="30" y="60" width="100" height="60" as="geometry" />
        </mxCell>
        <mxCell id="B2lhPkykwKd8bdaqU0oP-4" style="edgeStyle=orthogonalEdgeStyle;rounded=0;orthogonalLoop=1;jettySize=auto;html=1;exitX=0.5;exitY=1;exitDx=0;exitDy=0;entryX=0.5;entryY=0;entryDx=0;entryDy=0;fontSize=12;" parent="77e6c97f196da883-3" source="77e6c97f196da883-13" target="B2lhPkykwKd8bdaqU0oP-3" edge="1">
          <mxGeometry relative="1" as="geometry" />
        </mxCell>
        <mxCell id="77e6c97f196da883-13" value="銀/黒の&lt;div&gt;被災者を&lt;div&gt;認識？&lt;/div&gt;&lt;/div&gt;" style="rhombus;whiteSpace=wrap;html=1;rounded=0;shadow=0;labelBackgroundColor=none;strokeWidth=1;fontFamily=Verdana;fontSize=12;align=center;" parent="77e6c97f196da883-3" vertex="1">
          <mxGeometry x="25" y="150" width="110" height="90" as="geometry" />
        </mxCell>
        <mxCell id="B2lhPkykwKd8bdaqU0oP-5" style="edgeStyle=orthogonalEdgeStyle;rounded=0;orthogonalLoop=1;jettySize=auto;html=1;exitX=0.5;exitY=1;exitDx=0;exitDy=0;entryX=0;entryY=0.75;entryDx=0;entryDy=0;fontSize=12;" parent="77e6c97f196da883-3" source="B2lhPkykwKd8bdaqU0oP-3" target="77e6c97f196da883-11" edge="1">
          <mxGeometry relative="1" as="geometry">
            <Array as="points">
              <mxPoint x="80" y="360" />
              <mxPoint x="10" y="360" />
              <mxPoint x="10" y="105" />
            </Array>
          </mxGeometry>
        </mxCell>
        <mxCell id="B2lhPkykwKd8bdaqU0oP-15" style="edgeStyle=orthogonalEdgeStyle;rounded=0;orthogonalLoop=1;jettySize=auto;html=1;exitX=1;exitY=0.5;exitDx=0;exitDy=0;entryX=0.5;entryY=0;entryDx=0;entryDy=0;fontSize=12;" parent="77e6c97f196da883-3" source="B2lhPkykwKd8bdaqU0oP-3" target="B2lhPkykwKd8bdaqU0oP-14" edge="1">
          <mxGeometry relative="1" as="geometry">
            <Array as="points">
              <mxPoint x="135" y="375" />
              <mxPoint x="80" y="375" />
            </Array>
          </mxGeometry>
        </mxCell>
        <mxCell id="B2lhPkykwKd8bdaqU0oP-3" value="360度以上&lt;div&gt;回転した？&lt;/div&gt;" style="rhombus;whiteSpace=wrap;html=1;rounded=0;shadow=0;labelBackgroundColor=none;strokeWidth=1;fontFamily=Verdana;fontSize=12;align=center;" parent="77e6c97f196da883-3" vertex="1">
          <mxGeometry x="25" y="270" width="110" height="80" as="geometry" />
        </mxCell>
        <mxCell id="B2lhPkykwKd8bdaqU0oP-16" style="edgeStyle=orthogonalEdgeStyle;rounded=0;orthogonalLoop=1;jettySize=auto;html=1;exitX=0;exitY=0.5;exitDx=0;exitDy=0;endArrow=none;startFill=0;fontSize=12;" parent="77e6c97f196da883-3" source="B2lhPkykwKd8bdaqU0oP-14" edge="1">
          <mxGeometry relative="1" as="geometry">
            <mxPoint x="9.999999999999886" y="359.9999999999999" as="targetPoint" />
          </mxGeometry>
        </mxCell>
        <mxCell id="B2lhPkykwKd8bdaqU0oP-14" value="ランダムウォーク" style="rounded=1;whiteSpace=wrap;html=1;shadow=0;labelBackgroundColor=none;strokeWidth=1;fontFamily=Verdana;fontSize=12;align=center;" parent="77e6c97f196da883-3" vertex="1">
          <mxGeometry x="30" y="400" width="100" height="60" as="geometry" />
        </mxCell>
        <mxCell id="9dK806lt8p8oUHWehfYK-4" value="No" style="text;html=1;align=center;verticalAlign=middle;whiteSpace=wrap;rounded=0;" vertex="1" parent="77e6c97f196da883-3">
          <mxGeometry x="49" y="241" width="40" height="10" as="geometry" />
        </mxCell>
        <mxCell id="9dK806lt8p8oUHWehfYK-7" value="Yes" style="text;html=1;align=center;verticalAlign=middle;whiteSpace=wrap;rounded=0;" vertex="1" parent="77e6c97f196da883-3">
          <mxGeometry x="120" y="203" width="40" height="10" as="geometry" />
        </mxCell>
        <mxCell id="9dK806lt8p8oUHWehfYK-8" value="No" style="text;html=1;align=center;verticalAlign=middle;whiteSpace=wrap;rounded=0;" vertex="1" parent="77e6c97f196da883-3">
          <mxGeometry x="46" y="347" width="40" height="10" as="geometry" />
        </mxCell>
        <mxCell id="9dK806lt8p8oUHWehfYK-9" value="Yes" style="text;html=1;align=center;verticalAlign=middle;whiteSpace=wrap;rounded=0;" vertex="1" parent="77e6c97f196da883-3">
          <mxGeometry x="102" y="330" width="40" height="10" as="geometry" />
        </mxCell>
        <mxCell id="9dK806lt8p8oUHWehfYK-1" value="" style="endArrow=classic;html=1;rounded=0;exitX=0.5;exitY=1;exitDx=0;exitDy=0;" edge="1" parent="77e6c97f196da883-3" source="77e6c97f196da883-11" target="77e6c97f196da883-13">
          <mxGeometry width="50" height="50" relative="1" as="geometry">
            <mxPoint x="80" y="123" as="sourcePoint" />
            <mxPoint x="200" y="163" as="targetPoint" />
          </mxGeometry>
        </mxCell>
        <mxCell id="77e6c97f196da883-4" value="被災者救助" style="swimlane;html=1;startSize=30;fillColor=light-dark(#e6e6e6, #161616);strokeColor=none;swimlaneFillColor=#E6E6E6;fontSize=14;" parent="77e6c97f196da883-1" vertex="1">
          <mxGeometry x="320" width="160" height="580" as="geometry" />
        </mxCell>
        <mxCell id="B2lhPkykwKd8bdaqU0oP-13" style="edgeStyle=orthogonalEdgeStyle;rounded=0;orthogonalLoop=1;jettySize=auto;html=1;exitX=1;exitY=0.5;exitDx=0;exitDy=0;entryX=0.5;entryY=0;entryDx=0;entryDy=0;fontSize=12;" parent="77e6c97f196da883-4" source="B2lhPkykwKd8bdaqU0oP-8" target="B2lhPkykwKd8bdaqU0oP-12" edge="1">
          <mxGeometry relative="1" as="geometry">
            <mxPoint x="130.14814814814804" y="300" as="targetPoint" />
            <Array as="points">
              <mxPoint x="135" y="260" />
              <mxPoint x="80" y="260" />
            </Array>
          </mxGeometry>
        </mxCell>
        <mxCell id="77e6c97f196da883-15" value="直進する" style="rounded=1;whiteSpace=wrap;html=1;shadow=0;labelBackgroundColor=none;strokeWidth=1;fontFamily=Verdana;fontSize=12;align=center;" parent="77e6c97f196da883-4" vertex="1">
          <mxGeometry x="30" y="60" width="100" height="60" as="geometry" />
        </mxCell>
        <mxCell id="B2lhPkykwKd8bdaqU0oP-7" style="edgeStyle=orthogonalEdgeStyle;rounded=1;html=1;labelBackgroundColor=none;startArrow=none;startFill=0;startSize=5;endArrow=classicThin;endFill=1;endSize=5;jettySize=auto;orthogonalLoop=1;strokeWidth=1;fontFamily=Verdana;fontSize=12;exitX=0.5;exitY=1;exitDx=0;exitDy=0;entryX=0.5;entryY=0;entryDx=0;entryDy=0;" parent="77e6c97f196da883-4" target="B2lhPkykwKd8bdaqU0oP-8" edge="1">
          <mxGeometry relative="1" as="geometry">
            <mxPoint x="80" y="120" as="sourcePoint" />
            <mxPoint x="80" y="210" as="targetPoint" />
          </mxGeometry>
        </mxCell>
        <mxCell id="B2lhPkykwKd8bdaqU0oP-11" style="edgeStyle=orthogonalEdgeStyle;rounded=0;orthogonalLoop=1;jettySize=auto;html=1;exitX=0.5;exitY=1;exitDx=0;exitDy=0;entryX=0;entryY=0.75;entryDx=0;entryDy=0;fontSize=12;" parent="77e6c97f196da883-4" edge="1">
          <mxGeometry relative="1" as="geometry">
            <mxPoint x="80" y="235" as="sourcePoint" />
            <mxPoint x="30" y="100" as="targetPoint" />
            <Array as="points">
              <mxPoint x="80" y="250" />
              <mxPoint x="10" y="250" />
              <mxPoint x="10" y="100" />
            </Array>
          </mxGeometry>
        </mxCell>
        <mxCell id="B2lhPkykwKd8bdaqU0oP-8" value="前方の&lt;div&gt;距離センサが&lt;div&gt;4cm以下？&lt;/div&gt;&lt;/div&gt;" style="rhombus;whiteSpace=wrap;html=1;rounded=0;shadow=0;labelBackgroundColor=none;strokeWidth=1;fontFamily=Verdana;fontSize=12;align=center;" parent="77e6c97f196da883-4" vertex="1">
          <mxGeometry x="25" y="150" width="110" height="90" as="geometry" />
        </mxCell>
        <mxCell id="77e6c97f196da883-33" style="edgeStyle=orthogonalEdgeStyle;rounded=0;html=1;labelBackgroundColor=none;startArrow=none;startFill=0;startSize=5;endArrow=classicThin;endFill=1;endSize=5;jettySize=auto;orthogonalLoop=1;strokeWidth=1;fontFamily=Verdana;fontSize=12;entryX=0;entryY=0.5;entryDx=0;entryDy=0;exitX=1;exitY=0.5;exitDx=0;exitDy=0;curved=0;" parent="77e6c97f196da883-4" source="77e6c97f196da883-13" edge="1">
          <mxGeometry relative="1" as="geometry">
            <mxPoint x="-25" y="190" as="sourcePoint" />
            <mxPoint x="30" y="80" as="targetPoint" />
            <Array as="points">
              <mxPoint x="-10" y="195" />
              <mxPoint x="-10" y="80" />
            </Array>
          </mxGeometry>
        </mxCell>
        <mxCell id="B2lhPkykwKd8bdaqU0oP-12" value="被災者を回収" style="rounded=1;whiteSpace=wrap;html=1;shadow=0;labelBackgroundColor=none;strokeWidth=1;fontFamily=Verdana;fontSize=12;align=center;" parent="77e6c97f196da883-4" vertex="1">
          <mxGeometry x="30" y="280" width="100" height="60" as="geometry" />
        </mxCell>
        <mxCell id="9dK806lt8p8oUHWehfYK-10" value="No" style="text;html=1;align=center;verticalAlign=middle;whiteSpace=wrap;rounded=0;" vertex="1" parent="77e6c97f196da883-4">
          <mxGeometry x="45" y="236" width="40" height="10" as="geometry" />
        </mxCell>
        <mxCell id="9dK806lt8p8oUHWehfYK-11" value="Yes" style="text;html=1;align=center;verticalAlign=middle;whiteSpace=wrap;rounded=0;" vertex="1" parent="77e6c97f196da883-4">
          <mxGeometry x="102" y="217" width="40" height="10" as="geometry" />
        </mxCell>
        <mxCell id="77e6c97f196da883-5" value="避難所検知" style="swimlane;html=1;startSize=30;fillColor=light-dark(#ffffff, #ededed);strokeColor=none;swimlaneFillColor=default;fontSize=14;" parent="77e6c97f196da883-1" vertex="1">
          <mxGeometry x="480" width="160" height="580" as="geometry" />
        </mxCell>
        <mxCell id="77e6c97f196da883-35" style="edgeStyle=orthogonalEdgeStyle;rounded=1;html=1;labelBackgroundColor=none;startArrow=none;startFill=0;startSize=5;endArrow=classicThin;endFill=1;endSize=5;jettySize=auto;orthogonalLoop=1;strokeWidth=1;fontFamily=Verdana;fontSize=8" parent="77e6c97f196da883-5" edge="1">
          <mxGeometry relative="1" as="geometry">
            <mxPoint x="80" y="380.0000000000001" as="sourcePoint" />
          </mxGeometry>
        </mxCell>
        <mxCell id="B2lhPkykwKd8bdaqU0oP-17" value="その場で回転する" style="rounded=1;whiteSpace=wrap;html=1;shadow=0;labelBackgroundColor=none;strokeWidth=1;fontFamily=Verdana;fontSize=12;align=center;" parent="77e6c97f196da883-5" vertex="1">
          <mxGeometry x="30" y="60" width="100" height="60" as="geometry" />
        </mxCell>
        <mxCell id="B2lhPkykwKd8bdaqU0oP-18" style="edgeStyle=orthogonalEdgeStyle;rounded=1;html=1;labelBackgroundColor=none;startArrow=none;startFill=0;startSize=5;endArrow=classicThin;endFill=1;endSize=5;jettySize=auto;orthogonalLoop=1;strokeWidth=1;fontFamily=Verdana;fontSize=12;exitX=0.5;exitY=1;exitDx=0;exitDy=0;entryX=0.5;entryY=0;entryDx=0;entryDy=0;" parent="77e6c97f196da883-5" source="B2lhPkykwKd8bdaqU0oP-17" target="B2lhPkykwKd8bdaqU0oP-20" edge="1">
          <mxGeometry relative="1" as="geometry">
            <mxPoint x="-40" y="185" as="sourcePoint" />
            <mxPoint x="80" y="210" as="targetPoint" />
          </mxGeometry>
        </mxCell>
        <mxCell id="B2lhPkykwKd8bdaqU0oP-19" style="edgeStyle=orthogonalEdgeStyle;rounded=0;orthogonalLoop=1;jettySize=auto;html=1;exitX=0.5;exitY=1;exitDx=0;exitDy=0;entryX=0.5;entryY=0;entryDx=0;entryDy=0;fontSize=12;" parent="77e6c97f196da883-5" source="B2lhPkykwKd8bdaqU0oP-20" target="B2lhPkykwKd8bdaqU0oP-23" edge="1">
          <mxGeometry relative="1" as="geometry" />
        </mxCell>
        <mxCell id="B2lhPkykwKd8bdaqU0oP-20" value="緑/赤の&lt;div&gt;避難所を&lt;/div&gt;&lt;div&gt;認識？&lt;/div&gt;" style="rhombus;whiteSpace=wrap;html=1;rounded=0;shadow=0;labelBackgroundColor=none;strokeWidth=1;fontFamily=Verdana;fontSize=12;align=center;" parent="77e6c97f196da883-5" vertex="1">
          <mxGeometry x="25" y="150" width="110" height="90" as="geometry" />
        </mxCell>
        <mxCell id="B2lhPkykwKd8bdaqU0oP-21" style="edgeStyle=orthogonalEdgeStyle;rounded=0;orthogonalLoop=1;jettySize=auto;html=1;exitX=0.5;exitY=1;exitDx=0;exitDy=0;entryX=0;entryY=0.75;entryDx=0;entryDy=0;fontSize=12;" parent="77e6c97f196da883-5" source="B2lhPkykwKd8bdaqU0oP-23" target="B2lhPkykwKd8bdaqU0oP-17" edge="1">
          <mxGeometry relative="1" as="geometry">
            <Array as="points">
              <mxPoint x="80" y="360" />
              <mxPoint x="10" y="360" />
              <mxPoint x="10" y="105" />
            </Array>
          </mxGeometry>
        </mxCell>
        <mxCell id="B2lhPkykwKd8bdaqU0oP-22" style="edgeStyle=orthogonalEdgeStyle;rounded=0;orthogonalLoop=1;jettySize=auto;html=1;exitX=1;exitY=0.5;exitDx=0;exitDy=0;entryX=0.5;entryY=0;entryDx=0;entryDy=0;fontSize=12;" parent="77e6c97f196da883-5" source="B2lhPkykwKd8bdaqU0oP-23" target="B2lhPkykwKd8bdaqU0oP-25" edge="1">
          <mxGeometry relative="1" as="geometry">
            <Array as="points">
              <mxPoint x="135" y="375" />
              <mxPoint x="80" y="375" />
            </Array>
          </mxGeometry>
        </mxCell>
        <mxCell id="B2lhPkykwKd8bdaqU0oP-23" value="360度以上&lt;div&gt;回転した？&lt;/div&gt;" style="rhombus;whiteSpace=wrap;html=1;rounded=0;shadow=0;labelBackgroundColor=none;strokeWidth=1;fontFamily=Verdana;fontSize=12;align=center;" parent="77e6c97f196da883-5" vertex="1">
          <mxGeometry x="25" y="270" width="110" height="80" as="geometry" />
        </mxCell>
        <mxCell id="B2lhPkykwKd8bdaqU0oP-24" style="edgeStyle=orthogonalEdgeStyle;rounded=0;orthogonalLoop=1;jettySize=auto;html=1;exitX=0;exitY=0.5;exitDx=0;exitDy=0;endArrow=none;startFill=0;fontSize=12;" parent="77e6c97f196da883-5" source="B2lhPkykwKd8bdaqU0oP-25" edge="1">
          <mxGeometry relative="1" as="geometry">
            <mxPoint x="9.999999999999886" y="359.9999999999999" as="targetPoint" />
          </mxGeometry>
        </mxCell>
        <mxCell id="B2lhPkykwKd8bdaqU0oP-25" value="ランダムウォーク" style="rounded=1;whiteSpace=wrap;html=1;shadow=0;labelBackgroundColor=none;strokeWidth=1;fontFamily=Verdana;fontSize=12;align=center;" parent="77e6c97f196da883-5" vertex="1">
          <mxGeometry x="30" y="400" width="100" height="60" as="geometry" />
        </mxCell>
        <mxCell id="9dK806lt8p8oUHWehfYK-12" value="No" style="text;html=1;align=center;verticalAlign=middle;whiteSpace=wrap;rounded=0;" vertex="1" parent="77e6c97f196da883-5">
          <mxGeometry x="46" y="347" width="40" height="10" as="geometry" />
        </mxCell>
        <mxCell id="9dK806lt8p8oUHWehfYK-13" value="Yes" style="text;html=1;align=center;verticalAlign=middle;whiteSpace=wrap;rounded=0;" vertex="1" parent="77e6c97f196da883-5">
          <mxGeometry x="102" y="330" width="40" height="10" as="geometry" />
        </mxCell>
        <mxCell id="9dK806lt8p8oUHWehfYK-14" value="No" style="text;html=1;align=center;verticalAlign=middle;whiteSpace=wrap;rounded=0;" vertex="1" parent="77e6c97f196da883-5">
          <mxGeometry x="49" y="240" width="40" height="10" as="geometry" />
        </mxCell>
        <mxCell id="9dK806lt8p8oUHWehfYK-15" value="Yes" style="text;html=1;align=center;verticalAlign=middle;whiteSpace=wrap;rounded=0;" vertex="1" parent="77e6c97f196da883-5">
          <mxGeometry x="121" y="203" width="40" height="10" as="geometry" />
        </mxCell>
        <mxCell id="77e6c97f196da883-6" value="被災者放出" style="swimlane;html=1;startSize=30;fillColor=light-dark(#e6e6e6, #161616);strokeColor=none;swimlaneFillColor=#E6E6E6;fontSize=14;" parent="77e6c97f196da883-1" vertex="1">
          <mxGeometry x="640" width="160" height="580" as="geometry" />
        </mxCell>
        <mxCell id="B2lhPkykwKd8bdaqU0oP-28" style="edgeStyle=orthogonalEdgeStyle;rounded=0;orthogonalLoop=1;jettySize=auto;html=1;exitX=1;exitY=0.5;exitDx=0;exitDy=0;entryX=0.5;entryY=0;entryDx=0;entryDy=0;fontSize=12;" parent="77e6c97f196da883-6" source="B2lhPkykwKd8bdaqU0oP-31" target="B2lhPkykwKd8bdaqU0oP-32" edge="1">
          <mxGeometry relative="1" as="geometry">
            <mxPoint x="135.14814814814804" y="300" as="targetPoint" />
            <Array as="points">
              <mxPoint x="140" y="260" />
              <mxPoint x="85" y="260" />
            </Array>
          </mxGeometry>
        </mxCell>
        <mxCell id="B2lhPkykwKd8bdaqU0oP-29" value="直進する" style="rounded=1;whiteSpace=wrap;html=1;shadow=0;labelBackgroundColor=none;strokeWidth=1;fontFamily=Verdana;fontSize=12;align=center;" parent="77e6c97f196da883-6" vertex="1">
          <mxGeometry x="35" y="60" width="100" height="60" as="geometry" />
        </mxCell>
        <mxCell id="B2lhPkykwKd8bdaqU0oP-30" style="edgeStyle=orthogonalEdgeStyle;rounded=1;html=1;labelBackgroundColor=none;startArrow=none;startFill=0;startSize=5;endArrow=classicThin;endFill=1;endSize=5;jettySize=auto;orthogonalLoop=1;strokeWidth=1;fontFamily=Verdana;fontSize=12;exitX=0.5;exitY=1;exitDx=0;exitDy=0;entryX=0.5;entryY=0;entryDx=0;entryDy=0;" parent="77e6c97f196da883-6" target="B2lhPkykwKd8bdaqU0oP-31" edge="1">
          <mxGeometry relative="1" as="geometry">
            <mxPoint x="85" y="120" as="sourcePoint" />
            <mxPoint x="85" y="210" as="targetPoint" />
          </mxGeometry>
        </mxCell>
        <mxCell id="B2lhPkykwKd8bdaqU0oP-31" value="前方の&lt;div&gt;バンパーが&lt;div&gt;左右ともに&lt;/div&gt;&lt;div&gt;反応？&lt;/div&gt;&lt;/div&gt;" style="rhombus;whiteSpace=wrap;html=1;rounded=0;shadow=0;labelBackgroundColor=none;strokeWidth=1;fontFamily=Verdana;fontSize=12;align=center;" parent="77e6c97f196da883-6" vertex="1">
          <mxGeometry x="30" y="150" width="110" height="90" as="geometry" />
        </mxCell>
        <mxCell id="B2lhPkykwKd8bdaqU0oP-36" style="edgeStyle=orthogonalEdgeStyle;rounded=0;orthogonalLoop=1;jettySize=auto;html=1;exitX=0.5;exitY=1;exitDx=0;exitDy=0;entryX=0.5;entryY=0;entryDx=0;entryDy=0;fontSize=12;" parent="77e6c97f196da883-6" source="B2lhPkykwKd8bdaqU0oP-32" target="B2lhPkykwKd8bdaqU0oP-35" edge="1">
          <mxGeometry relative="1" as="geometry" />
        </mxCell>
        <mxCell id="B2lhPkykwKd8bdaqU0oP-32" value="被災者を放出" style="rounded=1;whiteSpace=wrap;html=1;shadow=0;labelBackgroundColor=none;strokeWidth=1;fontFamily=Verdana;fontSize=12;align=center;" parent="77e6c97f196da883-6" vertex="1">
          <mxGeometry x="35" y="280" width="100" height="60" as="geometry" />
        </mxCell>
        <mxCell id="B2lhPkykwKd8bdaqU0oP-33" style="edgeStyle=orthogonalEdgeStyle;rounded=0;orthogonalLoop=1;jettySize=auto;html=1;exitX=0.5;exitY=1;exitDx=0;exitDy=0;fontSize=12;entryX=0;entryY=0.75;entryDx=0;entryDy=0;" parent="77e6c97f196da883-6" source="B2lhPkykwKd8bdaqU0oP-31" target="B2lhPkykwKd8bdaqU0oP-29" edge="1">
          <mxGeometry relative="1" as="geometry">
            <Array as="points">
              <mxPoint x="85" y="250" />
              <mxPoint x="15" y="250" />
              <mxPoint x="15" y="105" />
            </Array>
            <mxPoint x="30" y="110" as="targetPoint" />
          </mxGeometry>
        </mxCell>
        <mxCell id="B2lhPkykwKd8bdaqU0oP-37" style="edgeStyle=orthogonalEdgeStyle;rounded=0;orthogonalLoop=1;jettySize=auto;html=1;exitX=0.5;exitY=1;exitDx=0;exitDy=0;fontSize=12;" parent="77e6c97f196da883-6" source="B2lhPkykwKd8bdaqU0oP-35" edge="1">
          <mxGeometry relative="1" as="geometry">
            <mxPoint x="-450" y="89.99999999999989" as="targetPoint" />
            <Array as="points">
              <mxPoint x="85" y="480" />
              <mxPoint x="-500" y="480" />
              <mxPoint x="-500" y="90" />
            </Array>
          </mxGeometry>
        </mxCell>
        <mxCell id="B2lhPkykwKd8bdaqU0oP-35" value="3人を&lt;div&gt;救助した？&lt;/div&gt;" style="rhombus;whiteSpace=wrap;html=1;rounded=0;shadow=0;labelBackgroundColor=none;strokeWidth=1;fontFamily=Verdana;fontSize=12;align=center;" parent="77e6c97f196da883-6" vertex="1">
          <mxGeometry x="30" y="380" width="110" height="80" as="geometry" />
        </mxCell>
        <mxCell id="9dK806lt8p8oUHWehfYK-16" value="No" style="text;html=1;align=center;verticalAlign=middle;whiteSpace=wrap;rounded=0;" vertex="1" parent="77e6c97f196da883-6">
          <mxGeometry x="52" y="237" width="40" height="10" as="geometry" />
        </mxCell>
        <mxCell id="9dK806lt8p8oUHWehfYK-17" value="Yes" style="text;html=1;align=center;verticalAlign=middle;whiteSpace=wrap;rounded=0;" vertex="1" parent="77e6c97f196da883-6">
          <mxGeometry x="107" y="217" width="40" height="10" as="geometry" />
        </mxCell>
        <mxCell id="9dK806lt8p8oUHWehfYK-22" value="No" style="text;html=1;align=center;verticalAlign=middle;whiteSpace=wrap;rounded=0;" vertex="1" parent="77e6c97f196da883-6">
          <mxGeometry x="53" y="464.41" width="40" height="10" as="geometry" />
        </mxCell>
        <mxCell id="9dK806lt8p8oUHWehfYK-23" value="Yes" style="text;html=1;align=center;verticalAlign=middle;whiteSpace=wrap;rounded=0;" vertex="1" parent="77e6c97f196da883-6">
          <mxGeometry x="121" y="430" width="40" height="10" as="geometry" />
        </mxCell>
        <mxCell id="77e6c97f196da883-7" value="レスキュー終了" style="swimlane;html=1;startSize=30;fillColor=light-dark(#ffffff, #ededed);strokeColor=none;swimlaneFillColor=default;fontSize=14;" parent="77e6c97f196da883-1" vertex="1">
          <mxGeometry x="800" width="160" height="580" as="geometry" />
        </mxCell>
        <mxCell id="B2lhPkykwKd8bdaqU0oP-41" style="edgeStyle=orthogonalEdgeStyle;rounded=0;orthogonalLoop=1;jettySize=auto;html=1;exitX=0.5;exitY=1;exitDx=0;exitDy=0;entryX=0.5;entryY=0;entryDx=0;entryDy=0;fontSize=12;" parent="77e6c97f196da883-7" source="B2lhPkykwKd8bdaqU0oP-38" target="B2lhPkykwKd8bdaqU0oP-40" edge="1">
          <mxGeometry relative="1" as="geometry" />
        </mxCell>
        <mxCell id="B2lhPkykwKd8bdaqU0oP-38" value="壁に沿って&lt;div&gt;時計回りに走行&lt;/div&gt;" style="rounded=1;whiteSpace=wrap;html=1;shadow=0;labelBackgroundColor=none;strokeWidth=1;fontFamily=Verdana;fontSize=12;align=center;" parent="77e6c97f196da883-7" vertex="1">
          <mxGeometry x="30" y="60" width="100" height="60" as="geometry" />
        </mxCell>
        <mxCell id="B2lhPkykwKd8bdaqU0oP-44" style="edgeStyle=orthogonalEdgeStyle;rounded=0;orthogonalLoop=1;jettySize=auto;html=1;exitX=1;exitY=0.5;exitDx=0;exitDy=0;fontSize=12;" parent="77e6c97f196da883-7" source="B2lhPkykwKd8bdaqU0oP-40" edge="1">
          <mxGeometry relative="1" as="geometry">
            <Array as="points">
              <mxPoint x="135" y="260" />
              <mxPoint x="110" y="260" />
            </Array>
            <mxPoint x="110" y="280" as="targetPoint" />
          </mxGeometry>
        </mxCell>
        <mxCell id="B2lhPkykwKd8bdaqU0oP-46" style="edgeStyle=orthogonalEdgeStyle;rounded=0;orthogonalLoop=1;jettySize=auto;html=1;exitX=0.5;exitY=1;exitDx=0;exitDy=0;fontSize=12;" parent="77e6c97f196da883-7" source="B2lhPkykwKd8bdaqU0oP-40" edge="1">
          <mxGeometry relative="1" as="geometry">
            <mxPoint x="80" y="360" as="targetPoint" />
            <mxPoint x="80" y="244.99" as="sourcePoint" />
            <Array as="points">
              <mxPoint x="80" y="253" />
              <mxPoint x="21" y="253" />
              <mxPoint x="21" y="360" />
            </Array>
          </mxGeometry>
        </mxCell>
        <mxCell id="B2lhPkykwKd8bdaqU0oP-40" value="左側の&lt;div&gt;距離センサ&lt;span style=&quot;background-color: transparent; color: light-dark(rgb(0, 0, 0), rgb(255, 255, 255));&quot;&gt;が&lt;/span&gt;&lt;div&gt;&lt;span style=&quot;background-color: transparent; color: light-dark(rgb(0, 0, 0), rgb(255, 255, 255));&quot;&gt;10cm以上？&lt;/span&gt;&lt;/div&gt;&lt;/div&gt;" style="rhombus;whiteSpace=wrap;html=1;rounded=0;shadow=0;labelBackgroundColor=none;strokeWidth=1;fontFamily=Verdana;fontSize=11;align=center;" parent="77e6c97f196da883-7" vertex="1">
          <mxGeometry x="25" y="150" width="110" height="90" as="geometry" />
        </mxCell>
        <mxCell id="B2lhPkykwKd8bdaqU0oP-42" value="黒テープを&lt;div&gt;認識？&lt;/div&gt;" style="rhombus;whiteSpace=wrap;html=1;rounded=0;shadow=0;labelBackgroundColor=none;strokeWidth=1;fontFamily=Verdana;fontSize=12;align=center;" parent="77e6c97f196da883-7" vertex="1">
          <mxGeometry x="25" y="380" width="110" height="80" as="geometry" />
        </mxCell>
        <mxCell id="B2lhPkykwKd8bdaqU0oP-45" style="edgeStyle=orthogonalEdgeStyle;rounded=0;orthogonalLoop=1;jettySize=auto;html=1;exitX=0.5;exitY=1;exitDx=0;exitDy=0;entryX=0.5;entryY=0;entryDx=0;entryDy=0;fontSize=12;" parent="77e6c97f196da883-7" source="B2lhPkykwKd8bdaqU0oP-43" target="B2lhPkykwKd8bdaqU0oP-42" edge="1">
          <mxGeometry relative="1" as="geometry" />
        </mxCell>
        <mxCell id="B2lhPkykwKd8bdaqU0oP-43" value="左に旋回" style="rounded=1;whiteSpace=wrap;html=1;shadow=0;labelBackgroundColor=none;strokeWidth=1;fontFamily=Verdana;fontSize=12;align=center;" parent="77e6c97f196da883-7" vertex="1">
          <mxGeometry x="30" y="280" width="100" height="60" as="geometry" />
        </mxCell>
        <mxCell id="B2lhPkykwKd8bdaqU0oP-48" value="脱出" style="rounded=1;whiteSpace=wrap;html=1;shadow=0;labelBackgroundColor=none;strokeWidth=1;fontFamily=Verdana;fontSize=12;align=center;" parent="77e6c97f196da883-7" vertex="1">
          <mxGeometry x="30" y="500" width="100" height="60" as="geometry" />
        </mxCell>
        <mxCell id="9dK806lt8p8oUHWehfYK-3" value="" style="endArrow=classic;html=1;rounded=0;entryX=0.5;entryY=0;entryDx=0;entryDy=0;exitX=1;exitY=0.5;exitDx=0;exitDy=0;" edge="1" parent="77e6c97f196da883-7" source="B2lhPkykwKd8bdaqU0oP-42" target="B2lhPkykwKd8bdaqU0oP-48">
          <mxGeometry width="50" height="50" relative="1" as="geometry">
            <mxPoint x="70" y="470" as="sourcePoint" />
            <mxPoint x="-180" y="300" as="targetPoint" />
            <Array as="points">
              <mxPoint x="135" y="483" />
              <mxPoint x="80" y="483" />
            </Array>
          </mxGeometry>
        </mxCell>
        <mxCell id="9dK806lt8p8oUHWehfYK-18" value="No" style="text;html=1;align=center;verticalAlign=middle;whiteSpace=wrap;rounded=0;" vertex="1" parent="77e6c97f196da883-7">
          <mxGeometry x="46" y="239" width="40" height="10" as="geometry" />
        </mxCell>
        <mxCell id="9dK806lt8p8oUHWehfYK-19" value="Yes" style="text;html=1;align=center;verticalAlign=middle;whiteSpace=wrap;rounded=0;" vertex="1" parent="77e6c97f196da883-7">
          <mxGeometry x="101" y="219" width="40" height="10" as="geometry" />
        </mxCell>
        <mxCell id="9dK806lt8p8oUHWehfYK-24" value="" style="endArrow=classic;html=1;rounded=0;exitX=0.5;exitY=1;exitDx=0;exitDy=0;entryX=0;entryY=0.75;entryDx=0;entryDy=0;" edge="1" parent="77e6c97f196da883-7" source="B2lhPkykwKd8bdaqU0oP-42" target="B2lhPkykwKd8bdaqU0oP-38">
          <mxGeometry width="50" height="50" relative="1" as="geometry">
            <mxPoint x="-50" y="373" as="sourcePoint" />
            <mxPoint x="10" y="93" as="targetPoint" />
            <Array as="points">
              <mxPoint x="80" y="473" />
              <mxPoint x="10" y="473" />
              <mxPoint x="10" y="105" />
            </Array>
          </mxGeometry>
        </mxCell>
        <mxCell id="9dK806lt8p8oUHWehfYK-25" value="No" style="text;html=1;align=center;verticalAlign=middle;whiteSpace=wrap;rounded=0;" vertex="1" parent="77e6c97f196da883-7">
          <mxGeometry x="47" y="461" width="40" height="10" as="geometry" />
        </mxCell>
        <mxCell id="9dK806lt8p8oUHWehfYK-26" value="Yes" style="text;html=1;align=center;verticalAlign=middle;whiteSpace=wrap;rounded=0;" vertex="1" parent="77e6c97f196da883-7">
          <mxGeometry x="101" y="440" width="40" height="10" as="geometry" />
        </mxCell>
        <mxCell id="B2lhPkykwKd8bdaqU0oP-6" style="edgeStyle=orthogonalEdgeStyle;rounded=0;orthogonalLoop=1;jettySize=auto;html=1;exitX=1;exitY=0.25;exitDx=0;exitDy=0;entryX=0;entryY=0.25;entryDx=0;entryDy=0;fontSize=12;" parent="77e6c97f196da883-1" source="77e6c97f196da883-8" target="77e6c97f196da883-11" edge="1">
          <mxGeometry relative="1" as="geometry" />
        </mxCell>
        <mxCell id="B2lhPkykwKd8bdaqU0oP-27" style="edgeStyle=orthogonalEdgeStyle;rounded=0;orthogonalLoop=1;jettySize=auto;html=1;exitX=1;exitY=0.5;exitDx=0;exitDy=0;entryX=0;entryY=0.5;entryDx=0;entryDy=0;fontSize=12;" parent="77e6c97f196da883-1" source="B2lhPkykwKd8bdaqU0oP-12" target="B2lhPkykwKd8bdaqU0oP-17" edge="1">
          <mxGeometry relative="1" as="geometry">
            <Array as="points">
              <mxPoint x="450" y="330" />
              <mxPoint x="470" y="330" />
              <mxPoint x="470" y="90" />
            </Array>
          </mxGeometry>
        </mxCell>
        <mxCell id="B2lhPkykwKd8bdaqU0oP-51" style="edgeStyle=orthogonalEdgeStyle;rounded=0;orthogonalLoop=1;jettySize=auto;html=1;exitX=1;exitY=0.5;exitDx=0;exitDy=0;fontSize=12;" parent="77e6c97f196da883-1" source="B2lhPkykwKd8bdaqU0oP-20" edge="1">
          <mxGeometry relative="1" as="geometry">
            <Array as="points">
              <mxPoint x="630" y="195" />
              <mxPoint x="630" y="90" />
            </Array>
            <mxPoint x="674" y="90" as="targetPoint" />
          </mxGeometry>
        </mxCell>
        <mxCell id="B2lhPkykwKd8bdaqU0oP-52" style="edgeStyle=orthogonalEdgeStyle;rounded=0;orthogonalLoop=1;jettySize=auto;html=1;exitX=1;exitY=0.5;exitDx=0;exitDy=0;entryX=0;entryY=0.5;entryDx=0;entryDy=0;fontSize=12;" parent="77e6c97f196da883-1" source="B2lhPkykwKd8bdaqU0oP-35" target="B2lhPkykwKd8bdaqU0oP-38" edge="1">
          <mxGeometry relative="1" as="geometry">
            <Array as="points">
              <mxPoint x="790" y="420" />
              <mxPoint x="790" y="90" />
            </Array>
          </mxGeometry>
        </mxCell>
      </root>
    </mxGraphModel>
  </diagram>
</mxfile>
